<svg width="347" height="274" viewBox="0 0 347 274" fill="none" xmlns="http://www.w3.org/2000/svg">
<g clip-path="url(#clip0)">
<path d="M315.018 0.179688H0.134827V202.448H315.018V0.179688Z" fill="#E6E6E6"/>
<path d="M306.014 25.5483H9.13849V190.481H306.014V25.5483Z" fill="white"/>
<path d="M314.883 0H0V13.4174H314.883V0Z" fill="#003087"/>
<path d="M9.94101 9.34619C11.3103 9.34619 12.4204 8.2328 12.4204 6.85937C12.4204 5.48594 11.3103 4.37256 9.94101 4.37256C8.57167 4.37256 7.46161 5.48594 7.46161 6.85937C7.46161 8.2328 8.57167 9.34619 9.94101 9.34619Z" fill="white"/>
<path d="M19.3521 9.34619C20.7215 9.34619 21.8315 8.2328 21.8315 6.85937C21.8315 5.48594 20.7215 4.37256 19.3521 4.37256C17.9828 4.37256 16.8727 5.48594 16.8727 6.85937C16.8727 8.2328 17.9828 9.34619 19.3521 9.34619Z" fill="white"/>
<path d="M28.7633 9.34619C30.1327 9.34619 31.2427 8.2328 31.2427 6.85937C31.2427 5.48594 30.1327 4.37256 28.7633 4.37256C27.394 4.37256 26.2839 5.48594 26.2839 6.85937C26.2839 8.2328 27.394 9.34619 28.7633 9.34619Z" fill="white"/>
<path d="M112.397 42.6616H36.1136V173.368H112.397V42.6616Z" fill="#E6E6E6"/>
<path d="M189.134 42.6616H125.564V78.6401H189.134V42.6616Z" fill="#003087"/>
<path d="M189.134 88.6592H125.564V127.37H189.134V88.6592Z" fill="#E6E6E6"/>
<path d="M189.134 137.39H125.564V173.368H189.134V137.39Z" fill="#E6E6E6"/>
<path d="M279.039 42.6616H202.756V99.6228H279.039V42.6616Z" fill="#E6E6E6"/>
<path d="M279.039 116.407H202.756V173.368H279.039V116.407Z" fill="#E6E6E6"/>
<path d="M249.652 103.715V91.4519C249.652 87.0937 251.378 82.9141 254.45 79.8324C257.523 76.7508 261.69 75.0195 266.035 75.0195C270.38 75.0195 274.547 76.7508 277.62 79.8324C280.692 82.9141 282.418 87.0937 282.418 91.4519V103.715C282.418 104.3 282.186 104.861 281.773 105.275C281.36 105.689 280.801 105.921 280.218 105.922H251.852C251.269 105.921 250.71 105.689 250.297 105.275C249.884 104.861 249.652 104.3 249.652 103.715Z" fill="#2F2E41"/>
<path d="M290.261 263.303L284.482 264.907L275.564 243.315L284.092 240.948L290.261 263.303Z" fill="#FFB8B8"/>
<path d="M279.898 264.397L291.042 261.304L292.984 268.341L274.823 273.382C274.568 272.458 274.497 271.493 274.614 270.541C274.731 269.589 275.034 268.67 275.505 267.836C275.976 267.001 276.606 266.268 277.36 265.678C278.114 265.088 278.976 264.653 279.898 264.397Z" fill="#2F2E41"/>
<path d="M230.016 267.761H224.02L221.167 244.565H230.017L230.016 267.761Z" fill="#FFB8B8"/>
<path d="M219.737 266.043H231.3V273.345H212.457C212.457 272.386 212.645 271.437 213.011 270.551C213.377 269.665 213.913 268.86 214.589 268.182C215.265 267.504 216.068 266.966 216.951 266.599C217.834 266.232 218.781 266.043 219.737 266.043Z" fill="#2F2E41"/>
<path d="M222.786 138.128C223.214 138.708 223.763 139.186 224.396 139.53C225.028 139.873 225.727 140.073 226.445 140.116C227.163 140.159 227.881 140.044 228.549 139.778C229.218 139.512 229.82 139.103 230.314 138.578L246.252 145.768L244.802 136.777L229.889 131.327C228.956 130.554 227.772 130.151 226.563 130.195C225.353 130.238 224.201 130.725 223.326 131.564C222.45 132.402 221.912 133.533 221.812 134.743C221.713 135.953 222.059 137.158 222.786 138.128H222.786Z" fill="#FFB8B8"/>
<path d="M255.902 192.203C250.894 192.203 245.71 191.454 241.353 189.229C239.04 188.071 236.99 186.447 235.332 184.458C233.673 182.469 232.442 180.158 231.715 177.67C229.444 170.46 232.307 163.376 235.075 156.526C236.79 152.281 238.411 148.272 238.831 144.32L238.978 142.917C239.633 136.615 240.198 131.173 243.329 129.131C244.952 128.073 247.134 128.013 250 128.946L276.92 137.717L275.93 188.972L275.767 189.027C275.626 189.074 266.136 192.203 255.902 192.203Z" fill="#2F2E41"/>
<path d="M249.529 112.99C249.529 112.99 262.734 109.066 273.004 110.537C273.004 110.537 267.135 142.911 269.092 153.703C271.048 164.494 235.102 157.872 242.438 147.571L244.883 135.308C244.883 135.308 239.993 130.403 244.394 124.517L249.529 112.99Z" fill="#B8BAC2"/>
<path d="M243.035 191.23L226.761 188.17L232.442 144.314C232.824 143.09 241.626 115.304 245.623 113.8C248.526 112.775 251.494 111.948 254.508 111.325L255.087 111.208L251.823 116.118L238.832 147.342L243.035 191.23Z" fill="#2F2E41"/>
<path d="M234.555 262.387L213.528 258.872L225.328 210.544L242.887 144.453L243.06 145.627C243.074 145.714 244.714 154.348 269.054 150.517L269.268 150.484L269.327 150.693L298.745 254.946L274.786 258.951L252.933 182.888L234.555 262.387Z" fill="#2F2E41"/>
<path d="M263.699 199.438L263.712 199.067C263.727 198.655 265.173 157.681 264.69 141.202C264.205 124.667 269.543 110.348 269.597 110.205L269.64 110.09L269.758 110.056C276.663 108.078 282.654 113.983 282.714 114.043L282.798 114.127L280.831 130.401L289.251 189.577L263.699 199.438Z" fill="#2F2E41"/>
<path d="M262.668 105.637C269.302 105.637 274.68 100.243 274.68 93.5891C274.68 86.9354 269.302 81.5415 262.668 81.5415C256.035 81.5415 250.657 86.9354 250.657 93.5891C250.657 100.243 256.035 105.637 262.668 105.637Z" fill="#FFB8B8"/>
<path d="M245.776 92.4328C245.78 88.9865 247.146 85.6825 249.576 83.2456C252.006 80.8087 255.3 79.438 258.736 79.4341H261.181C264.617 79.438 267.911 80.8087 270.341 83.2456C272.77 85.6825 274.137 88.9865 274.141 92.4328V92.6781H268.973L267.211 87.7279L266.858 92.6781H264.188L263.298 90.1804L263.12 92.6781H245.776V92.4328Z" fill="#2F2E41"/>
<path d="M261.486 107.302C261.244 106.972 261.099 106.581 261.068 106.172C261.038 105.764 261.123 105.355 261.314 104.993C263.905 100.049 267.533 90.915 262.718 85.2817L262.372 84.877H276.352V105.93L263.652 108.177C263.523 108.2 263.393 108.212 263.262 108.212C262.916 108.212 262.574 108.129 262.265 107.971C261.956 107.813 261.69 107.584 261.486 107.302Z" fill="#2F2E41"/>
<path d="M205.197 20.3791C195.414 12.0994 183.443 6.85009 170.74 5.27008C158.036 3.69007 145.149 5.84745 133.646 11.4797C122.143 17.1119 112.52 25.9762 105.948 36.9938C99.3763 48.0115 96.139 60.7075 96.63 73.5368C97.1211 86.3662 101.319 98.7759 108.714 109.256C116.109 119.736 126.381 127.834 138.281 132.565C150.18 137.296 163.195 138.456 175.74 135.904C188.285 133.352 199.82 127.197 208.941 118.19L289.937 186.738C291.17 187.783 292.766 188.295 294.374 188.16C295.982 188.024 297.471 187.254 298.513 186.018C299.555 184.782 300.064 183.181 299.93 181.568C299.795 179.955 299.027 178.462 297.794 177.417L297.786 177.41L216.789 108.861C226.199 95.3162 230.226 78.7354 228.081 62.3679C225.937 46.0004 217.776 31.0259 205.197 20.3791ZM199.976 102.26C193.666 109.761 185.28 115.216 175.879 117.936C166.478 120.656 156.484 120.519 147.16 117.543C137.836 114.566 129.602 108.883 123.499 101.212C117.396 93.5419 113.697 84.2284 112.871 74.4496C112.045 64.6708 114.129 54.8659 118.859 46.2749C123.588 37.6839 130.752 30.6925 139.443 26.1849C148.135 21.6773 157.964 19.856 167.687 20.9512C177.41 22.0464 186.592 26.009 194.07 32.3378H194.07C199.035 36.54 203.126 41.682 206.11 47.4701C209.094 53.2583 210.913 59.5792 211.461 66.0721C212.009 72.565 211.277 79.1026 209.307 85.3118C207.336 91.5209 204.166 97.2799 199.976 102.26Z" fill="#3F3D56"/>
<path opacity="0.3" d="M130.262 108.184C120.772 100.151 114.64 88.8322 113.085 76.4748C111.53 64.1174 114.665 51.6253 121.867 41.479C120.921 42.4345 120.007 43.4351 119.124 44.4809C114.934 49.461 111.764 55.2201 109.793 61.4292C107.822 67.6384 107.09 74.176 107.639 80.6689C108.187 87.1618 110.005 93.4827 112.989 99.2709C115.973 105.059 120.065 110.201 125.03 114.403C129.995 118.605 135.737 121.785 141.928 123.762C148.118 125.739 154.637 126.473 161.11 125.923C167.584 125.373 173.886 123.549 179.657 120.556C185.427 117.563 190.554 113.46 194.744 108.479C195.625 107.432 196.454 106.36 197.233 105.262C188.472 114.09 176.723 119.292 164.316 119.833C151.909 120.374 139.754 116.216 130.262 108.184Z" fill="black"/>
<path d="M266.525 159.19C267.223 159.362 267.951 159.377 268.656 159.236C269.361 159.095 270.026 158.8 270.606 158.373C271.185 157.946 271.664 157.397 272.009 156.764C272.353 156.131 272.555 155.43 272.601 154.711L289.441 150.023L282.595 144.037L267.654 149.406C266.443 149.41 265.276 149.859 264.373 150.668C263.471 151.477 262.895 152.59 262.756 153.796C262.617 155.002 262.924 156.217 263.619 157.211C264.313 158.206 265.347 158.91 266.525 159.19Z" fill="#FFB8B8"/>
<path d="M273.524 156.709L272.499 146.945L286.566 139.161L277.395 128.026L278.891 115.518L282.618 113.916L282.734 114.065C284.491 116.332 299.902 136.276 299.902 138.742C299.902 141.274 296.954 148.711 292.92 150.734C289.029 152.685 274.419 156.477 273.799 156.638L273.524 156.709Z" fill="#2F2E41"/>
<path d="M346.511 274H160.181C160.052 274 159.927 273.948 159.835 273.856C159.744 273.764 159.692 273.64 159.692 273.51C159.692 273.379 159.744 273.255 159.835 273.163C159.927 273.071 160.052 273.019 160.181 273.019H346.511C346.641 273.019 346.765 273.071 346.857 273.163C346.948 273.255 347 273.379 347 273.51C347 273.64 346.948 273.764 346.857 273.856C346.765 273.948 346.641 274 346.511 274Z" fill="#CCCCCC"/>
</g>
<defs>
<clipPath id="clip0">
<rect width="347" height="274" fill="white"/>
</clipPath>
</defs>
</svg>
