<svg width="276" height="47" viewBox="0 0 276 47" fill="none" xmlns="http://www.w3.org/2000/svg">
<path d="M81.256 30L75.592 22.56V30H71.488V13.152H75.592V20.544L81.208 13.152H86.032L79.504 21.408L86.272 30H81.256ZM100.846 23.088C100.846 23.472 100.822 23.872 100.774 24.288H91.4864C91.5504 25.12 91.8144 25.76 92.2784 26.208C92.7584 26.64 93.3424 26.856 94.0304 26.856C95.0544 26.856 95.7664 26.424 96.1664 25.56H100.534C100.31 26.44 99.9024 27.232 99.3104 27.936C98.7344 28.64 98.0064 29.192 97.1264 29.592C96.2464 29.992 95.2624 30.192 94.1744 30.192C92.8624 30.192 91.6944 29.912 90.6704 29.352C89.6464 28.792 88.8464 27.992 88.2704 26.952C87.6944 25.912 87.4064 24.696 87.4064 23.304C87.4064 21.912 87.6864 20.696 88.2464 19.656C88.8224 18.616 89.6224 17.816 90.6464 17.256C91.6704 16.696 92.8464 16.416 94.1744 16.416C95.4704 16.416 96.6224 16.688 97.6304 17.232C98.6384 17.776 99.4224 18.552 99.9824 19.56C100.558 20.568 100.846 21.744 100.846 23.088ZM96.6464 22.008C96.6464 21.304 96.4064 20.744 95.9264 20.328C95.4464 19.912 94.8464 19.704 94.1264 19.704C93.4384 19.704 92.8544 19.904 92.3744 20.304C91.9104 20.704 91.6224 21.272 91.5104 22.008H96.6464ZM120.099 16.464C121.763 16.464 123.083 16.968 124.059 17.976C125.051 18.984 125.547 20.384 125.547 22.176V30H121.467V22.728C121.467 21.864 121.235 21.2 120.771 20.736C120.323 20.256 119.699 20.016 118.899 20.016C118.099 20.016 117.467 20.256 117.003 20.736C116.555 21.2 116.331 21.864 116.331 22.728V30H112.251V22.728C112.251 21.864 112.019 21.2 111.555 20.736C111.107 20.256 110.483 20.016 109.683 20.016C108.883 20.016 108.251 20.256 107.787 20.736C107.339 21.2 107.115 21.864 107.115 22.728V30H103.011V16.608H107.115V18.288C107.531 17.728 108.075 17.288 108.747 16.968C109.419 16.632 110.179 16.464 111.027 16.464C112.035 16.464 112.931 16.68 113.715 17.112C114.515 17.544 115.139 18.16 115.587 18.96C116.051 18.224 116.683 17.624 117.483 17.16C118.283 16.696 119.155 16.464 120.099 16.464ZM132.522 18.504C132.922 17.88 133.474 17.376 134.178 16.992C134.882 16.608 135.706 16.416 136.65 16.416C137.754 16.416 138.754 16.696 139.65 17.256C140.546 17.816 141.25 18.616 141.762 19.656C142.29 20.696 142.554 21.904 142.554 23.28C142.554 24.656 142.29 25.872 141.762 26.928C141.25 27.968 140.546 28.776 139.65 29.352C138.754 29.912 137.754 30.192 136.65 30.192C135.722 30.192 134.898 30 134.178 29.616C133.474 29.232 132.922 28.736 132.522 28.128V36.384H128.418V16.608H132.522V18.504ZM138.378 23.28C138.378 22.256 138.09 21.456 137.514 20.88C136.954 20.288 136.258 19.992 135.426 19.992C134.61 19.992 133.914 20.288 133.338 20.88C132.778 21.472 132.498 22.28 132.498 23.304C132.498 24.328 132.778 25.136 133.338 25.728C133.914 26.32 134.61 26.616 135.426 26.616C136.242 26.616 136.938 26.32 137.514 25.728C138.09 25.12 138.378 24.304 138.378 23.28ZM160.761 13.152V16.44H153.897V19.992H159.033V23.184H153.897V30H149.793V13.152H160.761ZM164.982 15.216C164.262 15.216 163.67 15.008 163.206 14.592C162.758 14.16 162.534 13.632 162.534 13.008C162.534 12.368 162.758 11.84 163.206 11.424C163.67 10.992 164.262 10.776 164.982 10.776C165.686 10.776 166.262 10.992 166.71 11.424C167.174 11.84 167.406 12.368 167.406 13.008C167.406 13.632 167.174 14.16 166.71 14.592C166.262 15.008 165.686 15.216 164.982 15.216ZM167.022 16.608V30H162.918V16.608H167.022ZM178.156 16.464C179.724 16.464 180.972 16.976 181.9 18C182.844 19.008 183.316 20.4 183.316 22.176V30H179.236V22.728C179.236 21.832 179.004 21.136 178.54 20.64C178.076 20.144 177.452 19.896 176.668 19.896C175.884 19.896 175.26 20.144 174.796 20.64C174.332 21.136 174.1 21.832 174.1 22.728V30H169.996V16.608H174.1V18.384C174.516 17.792 175.076 17.328 175.78 16.992C176.484 16.64 177.276 16.464 178.156 16.464ZM185.352 23.28C185.352 21.904 185.608 20.696 186.12 19.656C186.648 18.616 187.36 17.816 188.256 17.256C189.152 16.696 190.152 16.416 191.256 16.416C192.2 16.416 193.024 16.608 193.728 16.992C194.448 17.376 195 17.88 195.384 18.504V16.608H199.488V30H195.384V28.104C194.984 28.728 194.424 29.232 193.704 29.616C193 30 192.176 30.192 191.232 30.192C190.144 30.192 189.152 29.912 188.256 29.352C187.36 28.776 186.648 27.968 186.12 26.928C185.608 25.872 185.352 24.656 185.352 23.28ZM195.384 23.304C195.384 22.28 195.096 21.472 194.52 20.88C193.96 20.288 193.272 19.992 192.456 19.992C191.64 19.992 190.944 20.288 190.368 20.88C189.808 21.456 189.528 22.256 189.528 23.28C189.528 24.304 189.808 25.12 190.368 25.728C190.944 26.32 191.64 26.616 192.456 26.616C193.272 26.616 193.96 26.32 194.52 25.728C195.096 25.136 195.384 24.328 195.384 23.304ZM210.617 16.464C212.185 16.464 213.433 16.976 214.361 18C215.305 19.008 215.777 20.4 215.777 22.176V30H211.697V22.728C211.697 21.832 211.465 21.136 211.001 20.64C210.537 20.144 209.913 19.896 209.129 19.896C208.345 19.896 207.721 20.144 207.257 20.64C206.793 21.136 206.561 21.832 206.561 22.728V30H202.457V16.608H206.561V18.384C206.977 17.792 207.537 17.328 208.241 16.992C208.945 16.64 209.737 16.464 210.617 16.464ZM217.813 23.304C217.813 21.912 218.093 20.696 218.653 19.656C219.229 18.616 220.021 17.816 221.029 17.256C222.053 16.696 223.221 16.416 224.533 16.416C226.213 16.416 227.613 16.856 228.733 17.736C229.869 18.616 230.613 19.856 230.965 21.456H226.597C226.229 20.432 225.517 19.92 224.461 19.92C223.709 19.92 223.109 20.216 222.661 20.808C222.213 21.384 221.989 22.216 221.989 23.304C221.989 24.392 222.213 25.232 222.661 25.824C223.109 26.4 223.709 26.688 224.461 26.688C225.517 26.688 226.229 26.176 226.597 25.152H230.965C230.613 26.72 229.869 27.952 228.733 28.848C227.597 29.744 226.197 30.192 224.533 30.192C223.221 30.192 222.053 29.912 221.029 29.352C220.021 28.792 219.229 27.992 218.653 26.952C218.093 25.912 217.813 24.696 217.813 23.304ZM245.784 23.088C245.784 23.472 245.76 23.872 245.712 24.288H236.424C236.488 25.12 236.752 25.76 237.216 26.208C237.696 26.64 238.28 26.856 238.968 26.856C239.992 26.856 240.704 26.424 241.104 25.56H245.472C245.248 26.44 244.84 27.232 244.248 27.936C243.672 28.64 242.944 29.192 242.064 29.592C241.184 29.992 240.2 30.192 239.112 30.192C237.8 30.192 236.632 29.912 235.608 29.352C234.584 28.792 233.784 27.992 233.208 26.952C232.632 25.912 232.344 24.696 232.344 23.304C232.344 21.912 232.624 20.696 233.184 19.656C233.76 18.616 234.56 17.816 235.584 17.256C236.608 16.696 237.784 16.416 239.112 16.416C240.408 16.416 241.56 16.688 242.568 17.232C243.576 17.776 244.36 18.552 244.92 19.56C245.496 20.568 245.784 21.744 245.784 23.088ZM241.584 22.008C241.584 21.304 241.344 20.744 240.864 20.328C240.384 19.912 239.784 19.704 239.064 19.704C238.376 19.704 237.792 19.904 237.312 20.304C236.848 20.704 236.56 21.272 236.448 22.008H241.584Z" fill="#F9F9F9"/>
<path d="M51.0628 6.88293C46.6303 2.44436 40.7368 0 34.4682 0C28.1996 0 22.3062 2.44436 17.8736 6.88293C13.4411 11.3215 11 17.2229 11 23.5C11 29.7771 13.4412 35.6784 17.8736 40.1171C22.3061 44.5558 28.1996 47 34.4682 47C40.7368 47 46.6303 44.5556 51.0628 40.1171C55.4954 35.6785 57.9364 29.7771 57.9364 23.5C57.9364 17.2229 55.4953 11.3216 51.0628 6.88293Z" fill="#33CC95"/>
<path d="M35.1387 9.39999V38.9429" stroke="white" stroke-width="2" stroke-linecap="round" stroke-linejoin="round"/>
<path d="M41.8439 14.7714H31.7861C30.5413 14.7714 29.3474 15.2667 28.4673 16.148C27.587 17.0294 27.0925 18.225 27.0925 19.4714C27.0925 20.718 27.587 21.9134 28.4673 22.7949C29.3474 23.6763 30.5413 24.1714 31.7861 24.1714H38.4914C39.7361 24.1714 40.9301 24.6667 41.8102 25.548C42.6905 26.4295 43.185 27.625 43.185 28.8714C43.185 30.118 42.6905 31.3134 41.8102 32.1949C40.9301 33.0763 39.7361 33.5714 38.4914 33.5714H27.0925" stroke="white" stroke-width="2" stroke-linecap="round" stroke-linejoin="round"/>
</svg>
